# xmcd
#
# Track frame offsets:
#	300
#	18284
#	36494
#	53143
#	70109
#	87053
#	109170
#	128164
#	148002
#	168301
#	188011
#	207922
#
# Disc length: 2996 seconds
#
# Revision: 1
# Processed by: cddbd v1.5.1PL2 Copyright (c) Steve Scherf et al.
# Submitted via: audiograbber 1.83.01
#
DISCID=a40bb00c
DTITLE=CDPOOL - Street August 2006 CD2
DYEAR=2006
DGENRE=R&B
TTITLE0=Obie Trice Featuring Akon - Snitch
TTITLE1=Nelly Furtado Featuring Timbaland - Promiscuous
TTITLE2=Alesha  - Lipstick
TTITLE3=Chamillionaire Featuring Krayzie Bone - Ridin'
TTITLE4=Yummy Bingham - One More Chance
TTITLE5=DJ Spinna Featuring Selan - Back 2 U
TTITLE6=Ray Robinson Featuring Kid Kut and Saukrates - Missed Your Chance
TTITLE7=Joy Denalane - Let Go (Sholar Remix)
TTITLE8=The Isley Brothers Featuring Ronald Isley - Gotta Be With You
TTITLE9=Rodney Jerkins - Ride With Me
TTITLE10=MC Hammer and Duane - Get Away
TTITLE11=Vikter Duplaix - Stimulation
EXTD=
EXTT0=
EXTT1=
EXTT2=
EXTT3=
EXTT4=
EXTT5=
EXTT6=
EXTT7=
EXTT8=
EXTT9=
EXTT10=
EXTT11=
PLAYORDER=
